<svg width="67" height="195" viewBox="0 0 67 195" fill="none" xmlns="http://www.w3.org/2000/svg">
<path d="M61.8422 28.5246C58.9483 26.9218 54.84 25.2999 50.2196 25.8463C49.0558 25.9786 47.9878 26.2274 47.0104 26.5581C46.0347 26.8905 45.1322 27.296 44.3796 27.7885C43.9579 28.0547 43.5642 28.3366 43.1931 28.629C44.6932 26.0778 46.2786 23.5788 47.946 21.1354C47.9703 21.1354 47.993 21.1354 48.0174 21.1337C48.9756 21.0937 50.3015 20.9753 51.765 20.6604C52.4967 20.5037 53.2633 20.2966 54.0386 20.0252C54.4254 19.8894 54.8139 19.738 55.2024 19.5657C55.5927 19.3969 55.969 19.2003 56.3732 19.0071C57.9639 18.2135 59.4866 17.0946 60.7602 15.4709C62.0896 13.8925 62.9171 12.2044 63.3875 10.492C63.5077 10.0674 63.6001 9.6358 63.6889 9.21814C63.783 8.80569 63.8579 8.39673 63.9172 7.99299C64.0356 7.18377 64.0914 6.39543 64.1053 5.64886C64.1611 2.66605 63.5496 0.379349 63.5496 0.379349C63.5496 0.379349 61.323 -0.21408 58.2479 0.0835051C57.4796 0.158336 56.6572 0.287116 55.8053 0.495947C55.3784 0.600363 54.9463 0.723921 54.5073 0.868363C54.0752 1.01977 53.6518 1.20423 53.2215 1.40784C51.5106 2.23273 49.7614 3.44395 48.2665 5.2225C46.8274 7.04803 45.9528 8.97798 45.4737 10.8122C45.3465 11.2664 45.2768 11.738 45.2158 12.194C45.1566 12.6499 45.1183 13.0989 45.0974 13.5357C45.0556 14.4093 45.0869 15.2377 45.1601 16.0052C45.3082 17.5383 45.6375 18.8192 45.9267 19.7171C45.9424 19.7676 45.9598 19.8146 45.9755 19.8633C44.3012 22.3641 42.7053 24.9153 41.1912 27.5152C41.2662 27.0227 41.3219 26.5129 41.3515 25.9769C41.3881 25.0302 41.409 24.0556 41.3132 23.0097C41.2191 21.9638 41.0222 20.8535 40.6964 19.6806C39.3689 14.9662 36.7293 11.5414 34.2501 9.29993C33.0201 8.18094 31.851 7.36476 30.9869 6.83398C30.1227 6.3032 29.5652 6.05434 29.5652 6.05434C29.5652 6.05434 29.1244 6.47374 28.4937 7.26382C28.3369 7.46221 28.1627 7.67975 27.9902 7.92686C27.823 8.17572 27.647 8.44894 27.4693 8.74304C27.1121 9.33125 26.7428 10.0065 26.3926 10.7583C26.0424 11.5101 25.7096 12.3402 25.4291 13.2364C25.1486 14.1326 24.9099 15.0898 24.8141 16.1339C24.5928 18.2083 24.713 20.4968 25.4361 22.8861C25.7845 24.0747 26.2933 25.1763 26.8595 26.1665C27.4257 27.1567 28.0616 28.0408 28.7341 28.8326C30.0792 30.4145 31.5705 31.6257 32.9521 32.5498C34.3355 33.4739 35.6091 34.1108 36.5359 34.5215C36.7938 34.6364 37.022 34.7304 37.2224 34.8122C34.494 40.2035 32.1106 45.7688 30.0983 51.4665C30.107 50.7007 30.0652 49.8915 29.9555 49.0405C29.7708 47.1976 29.2359 45.158 28.1522 42.9653C27.8804 42.4171 27.5912 41.8915 27.2863 41.3869C26.978 40.8822 26.6626 40.4019 26.3473 39.9494C25.7079 39.0393 25.0162 38.2144 24.2984 37.4713C22.8645 35.9834 21.3278 34.8226 19.9079 33.9507C18.4897 33.0771 17.19 32.4924 16.2439 32.1304C15.2979 31.7684 14.7038 31.6275 14.7038 31.6275C14.7038 31.6275 14.3519 32.1252 13.8815 33.0232C13.6463 33.4722 13.3814 34.0221 13.1183 34.6573C12.8692 35.2994 12.6445 36.039 12.4406 36.8465C12.0399 38.4632 11.7698 40.374 11.8744 42.4362C12.0382 44.5176 12.6061 46.759 13.7682 48.9814C14.3501 50.0934 15.0174 51.0714 15.737 51.9328C16.4792 52.803 17.2754 53.5565 18.0855 54.2108C19.7075 55.5195 21.401 56.4332 22.9342 57.0858C24.4674 57.7366 25.8385 58.1247 26.8246 58.3561C27.2271 58.4501 27.5616 58.5163 27.8212 58.5632L27.417 59.9642L26.9936 61.4329C26.8595 61.9237 26.6975 62.4075 26.5912 62.9069L25.1956 68.8569C24.8019 70.8547 24.4569 72.863 24.0841 74.866C23.9395 75.5726 23.8436 76.2861 23.7513 77.0013C23.7252 76.8203 23.699 76.6393 23.6659 76.4531C23.6311 76.2478 23.5875 76.0407 23.5457 75.8301C23.5109 75.6213 23.4708 75.409 23.4238 75.1949C23.3332 74.7668 23.2199 74.33 23.0858 73.8845C22.5422 72.1025 21.6188 70.1899 20.1274 68.2304C17.2876 64.3374 13.4947 62.0873 10.3743 60.9022C8.81673 60.307 7.4299 59.9746 6.43333 59.7953C5.43502 59.6161 4.82697 59.5883 4.82697 59.5883C4.82697 59.5883 4.57958 60.1451 4.29385 61.1197C4.01509 62.0942 3.66664 63.483 3.55513 65.1467C3.47847 66.8156 3.58649 68.749 4.09174 70.7607C4.21719 71.2637 4.36876 71.7718 4.54821 72.28C4.63881 72.5341 4.73289 72.7899 4.83917 73.044C4.95242 73.2998 5.07437 73.5573 5.2033 73.8131C5.72075 74.8364 6.36016 75.8545 7.1494 76.8412C8.72788 78.8129 10.5311 80.1964 12.3413 81.1797C12.7943 81.4251 13.2473 81.6461 13.6985 81.8445C14.155 82.0428 14.6097 82.2204 15.0575 82.377C15.9513 82.6902 16.8189 82.9269 17.6343 83.1044C19.2633 83.4594 20.6832 83.5882 21.6955 83.6317C22.2443 83.6561 22.6676 83.6543 22.9446 83.6474C22.2913 90.1699 22.0979 96.7376 22.3453 103.291C22.0491 102.139 21.6118 100.893 20.9184 99.6143C20.4741 98.7859 19.9288 97.9453 19.2633 97.1031C18.6186 96.2608 17.8886 95.4202 16.9966 94.5936C13.4476 91.2854 9.27668 89.7731 5.98906 89.1866C4.34437 88.8908 2.92095 88.8194 1.9087 88.8281C0.896456 88.8368 0.293637 88.9221 0.293637 88.9221C0.293637 88.9221 0.161226 89.5138 0.0741131 90.5231C-0.0129995 91.5325 -0.0548135 92.9595 0.129865 94.6127C0.229173 95.4394 0.354616 96.3217 0.612469 97.2336C0.879033 98.1455 1.22574 99.0852 1.67176 100.027C2.11952 100.968 2.66658 101.91 3.33561 102.823C3.67012 103.279 4.03425 103.73 4.43323 104.169C4.63184 104.388 4.83917 104.604 5.05521 104.818C5.27822 105.032 5.51342 105.241 5.75559 105.448C9.63907 108.745 13.932 109.584 17.2545 109.697C18.9148 109.751 20.3348 109.617 21.3383 109.476C21.9707 109.386 22.4394 109.294 22.699 109.236L22.746 109.911C22.7861 110.42 22.8018 110.931 22.875 111.436L23.605 117.515L23.6503 117.894L23.7147 118.272L23.8436 119.027L24.1015 120.536L24.6189 123.555C24.713 124.056 24.774 124.564 24.896 125.06L25.2305 126.555L25.8176 129.178C25.2862 127.97 24.5353 126.665 23.4691 125.375C23.1572 125.012 22.8645 124.641 22.5282 124.275C22.1937 123.91 21.8331 123.548 21.4411 123.191C20.6588 122.478 19.7581 121.789 18.7197 121.138C17.6813 120.489 16.629 119.954 15.5802 119.521C14.5226 119.088 13.5278 118.747 12.519 118.494C10.5189 117.984 8.60069 117.81 6.93684 117.819C5.27299 117.826 3.86003 118.018 2.86346 118.211C1.86689 118.404 1.28846 118.599 1.28846 118.599C1.28846 118.599 1.25013 119.21 1.32331 120.226C1.37035 121.246 1.64388 122.655 2.14739 124.251C2.40176 125.048 2.72408 125.89 3.12828 126.747C3.33038 127.175 3.55339 127.606 3.79905 128.038C4.04645 128.47 4.30604 128.901 4.62836 129.322C5.88278 131.012 7.53443 132.629 9.69657 133.91C11.8343 135.197 14.0836 135.826 16.1464 136.085C18.2144 136.344 20.1344 136.228 21.7808 135.974C23.4255 135.718 24.7949 135.323 25.7549 134.999C26.4779 134.754 26.9675 134.547 27.1644 134.46C28.8875 140.705 31.0409 146.835 33.6246 152.783C33.832 153.26 34.048 153.731 34.2606 154.206C34.217 154.137 34.1752 154.069 34.1282 153.997C33.7309 153.392 33.2623 152.764 32.7082 152.137C32.4312 151.824 32.1333 151.511 31.811 151.199C31.4956 150.886 31.1785 150.567 30.8249 150.258C29.4241 149.019 27.6296 147.87 25.3315 146.982C24.1677 146.544 23.0788 146.198 21.9812 145.959C20.8888 145.719 19.8173 145.578 18.7824 145.515C16.7126 145.388 14.7909 145.573 13.1549 145.89C11.519 146.206 10.1652 146.655 9.22442 147.031C8.2836 147.405 7.75221 147.706 7.75221 147.706C7.75221 147.706 7.83584 148.314 8.10763 149.299C8.24353 149.791 8.42647 150.378 8.66864 151.029C8.7906 151.354 8.92649 151.695 9.07981 152.048C9.24184 152.398 9.43175 152.757 9.63385 153.124C10.4492 154.593 11.5625 156.19 13.0521 157.645C13.4285 158.007 13.8118 158.367 14.2491 158.7C14.6881 159.032 15.1516 159.352 15.6411 159.655C16.6203 160.259 17.7005 160.791 18.8887 161.218C20.0786 161.644 21.2372 161.916 22.3575 162.065C22.9168 162.14 23.4673 162.185 24.0039 162.204C24.544 162.222 25.0859 162.208 25.6051 162.175C27.6923 162.043 29.56 161.571 31.1315 161.014C32.7013 160.457 33.9731 159.815 34.8564 159.316C35.738 158.818 36.2293 158.461 36.2293 158.461C36.2293 158.461 36.2241 158.446 36.2189 158.421C38.895 163.917 41.93 169.244 45.3012 174.355C45.8465 175.175 46.4006 175.989 46.9616 176.798C46.8588 176.687 46.756 176.576 46.6462 176.464C46.1392 175.944 45.5556 175.415 44.89 174.903C44.2297 174.386 43.5293 173.857 42.714 173.384C41.9038 172.907 41.0013 172.47 39.9978 172.098C39.496 171.912 38.9681 171.741 38.4141 171.59C37.8618 171.438 37.2712 171.311 36.6858 171.186C31.9399 170.222 27.6069 171.132 24.5092 172.369C22.9586 172.985 21.7129 173.678 20.8592 174.223C20.0037 174.766 19.5385 175.159 19.5385 175.159C19.5385 175.159 19.7372 175.738 20.1954 176.654C20.6518 177.568 21.3679 178.817 22.3958 180.141C23.4673 181.436 24.8785 182.788 26.6225 183.937C27.0598 184.224 27.5163 184.497 27.9972 184.753C28.4798 185.007 28.9711 185.253 29.5164 185.453C30.5949 185.862 31.7604 186.184 33.0149 186.38C35.522 186.774 37.7921 186.58 39.7957 186.083C40.7923 185.837 41.7383 185.505 42.6129 185.132C43.484 184.76 44.2837 184.349 45.0033 183.93C46.4441 183.091 47.5749 182.224 48.3502 181.574C49.1237 180.921 49.5401 180.481 49.5401 180.481C49.5401 180.481 49.4826 180.361 49.3641 180.15C49.3502 180.127 49.3345 180.1 49.3188 180.075C52.8086 184.797 56.5927 189.304 60.6505 193.555C60.6557 193.562 60.6696 193.574 60.6748 193.581C61.4153 194.34 62.7063 194.251 63.5583 193.381C64.4102 192.513 64.5235 191.215 63.8109 190.484C59.8194 186.479 56.0753 182.221 52.6082 177.743C52.7668 177.889 52.8608 177.966 52.8608 177.966C52.8608 177.966 53.3992 177.681 54.2355 177.108C55.0718 176.536 56.2077 175.674 57.4133 174.536C58.0162 173.967 58.6364 173.328 59.2479 172.625C59.8577 171.924 60.4605 171.155 61.0459 170.312C62.208 168.635 63.2429 166.705 63.9503 164.571C64.304 163.504 64.5339 162.511 64.6629 161.587C64.7204 161.131 64.7866 160.668 64.8197 160.231C64.8545 159.792 64.8667 159.373 64.8597 158.969C64.8371 157.353 64.4939 156.013 64.0653 154.915C63.682 153.79 63.1837 152.929 62.7777 152.342C62.3718 151.758 62.0599 151.45 62.0599 151.45C62.0599 151.45 61.4954 151.671 60.5912 152.127C59.6852 152.583 58.4378 153.27 57.0771 154.217C54.3592 156.115 51.1813 159.03 49.5314 163.445C49.3188 164.002 49.1725 164.529 49.0505 165.055C48.9286 165.579 48.8415 166.092 48.7805 166.595C48.6603 167.599 48.6533 168.558 48.73 169.463C48.8119 170.363 48.953 171.224 49.1882 171.993C49.4304 172.757 49.7231 173.459 50.0349 174.089C50.1795 174.381 50.3294 174.658 50.4809 174.921C49.8189 174.016 49.1638 173.105 48.5244 172.183C45.1444 167.284 42.0902 162.156 39.3932 156.844C39.4089 156.864 39.4194 156.878 39.4194 156.878C39.4194 156.878 39.9995 156.697 40.9282 156.289C41.8568 155.882 43.1321 155.245 44.5277 154.349C45.9249 153.453 47.4424 152.295 48.8676 150.874C49.2265 150.517 49.5715 150.148 49.9199 149.756C50.2719 149.363 50.6151 148.954 50.9479 148.526C51.6134 147.673 52.2336 146.753 52.7824 145.766C53.333 144.779 53.7477 143.843 54.0508 142.955C54.2024 142.512 54.3278 142.082 54.4271 141.664C54.5282 141.245 54.6345 140.827 54.7007 140.43C54.9864 138.833 54.9202 137.442 54.6989 136.285C54.6449 135.994 54.5752 135.723 54.509 135.46C54.4533 135.196 54.3888 134.947 54.3209 134.714C54.185 134.249 54.0351 133.849 53.8923 133.521C53.6083 132.867 53.3644 132.505 53.3644 132.505C53.3644 132.505 52.7702 132.618 51.7963 132.897C50.8224 133.175 49.4687 133.619 47.9529 134.298C46.4389 134.976 44.7646 135.89 43.16 137.134C42.3568 137.757 41.5728 138.464 40.8341 139.266C40.1006 140.068 39.3863 140.977 38.82 141.97C37.6597 143.968 37.097 145.937 36.9001 147.75C36.853 148.202 36.8182 148.65 36.8234 149.076C36.8356 149.501 36.8652 149.913 36.9105 150.313C37.0029 151.112 37.1562 151.859 37.3409 152.541C37.3583 152.602 37.3757 152.661 37.3931 152.722C37.1875 152.278 36.975 151.836 36.7746 151.391C34.1752 145.627 31.9887 139.677 30.2185 133.6C30.4381 133.568 30.959 133.488 31.6925 133.318C32.6803 133.09 34.0515 132.702 35.5916 132.079C37.1318 131.458 38.8427 130.601 40.5153 129.467C42.193 128.33 43.7942 126.926 45.2821 125.179C46.7455 123.438 47.6428 121.79 48.1585 120.283C48.2787 119.907 48.4129 119.533 48.5157 119.171C48.6202 118.808 48.7021 118.456 48.7666 118.113C48.8955 117.428 48.9512 116.785 48.9582 116.192C48.9791 115.007 48.7631 114.027 48.6429 113.322C48.4965 112.623 48.3293 112.219 48.3293 112.219C48.3293 112.219 47.7247 112.219 46.7159 112.311C45.7072 112.403 44.2942 112.588 42.6774 112.974C41.0606 113.361 39.2417 113.949 37.4228 114.878C36.522 115.341 35.5864 115.896 34.7414 116.544C33.886 117.194 33.0636 117.948 32.2988 118.825C31.5339 119.702 30.9172 120.6 30.4224 121.496C30.175 121.945 29.959 122.394 29.769 122.84C29.5826 123.285 29.4084 123.731 29.3004 124.162C28.8875 125.694 28.776 127.159 28.823 128.454L28.2132 125.899L27.8648 124.443C27.7376 123.959 27.6731 123.463 27.5738 122.974L27.025 120.029L26.7515 118.557L26.6138 117.821L26.5459 117.452L26.4954 117.081L25.6957 111.14C25.6173 110.646 25.5964 110.146 25.5493 109.649L25.4936 108.987C25.7584 108.998 26.2323 109.005 26.8717 108.98C27.8839 108.94 29.3039 108.813 30.9346 108.486C34.1978 107.839 38.3148 106.37 41.7279 103.481C41.9422 103.3 42.1443 103.121 42.3429 102.94C42.5485 102.759 42.7453 102.576 42.9335 102.395C43.3116 102.033 43.6548 101.67 43.9684 101.309C44.5956 100.587 45.1026 99.8718 45.5085 99.174C45.9145 98.4744 46.2194 97.7939 46.4459 97.1396C46.6828 96.4853 46.8901 95.8588 47.0121 95.274C47.2682 94.1046 47.2874 93.097 47.2438 92.3765C47.2003 91.656 47.094 91.2245 47.094 91.2245C47.094 91.2245 46.4964 91.1131 45.4876 91.0191C44.4771 90.9251 43.0537 90.8486 41.4003 90.9338C38.0918 91.1096 33.8633 91.9119 30.1576 94.8042C29.2359 95.5281 28.4345 96.2991 27.7916 97.0926C27.1679 97.8862 26.6644 98.7006 26.2619 99.5133C25.6748 100.705 25.288 101.891 25.0597 102.994C24.7531 96.6297 24.8698 90.243 25.4291 83.8927C25.7026 83.9502 26.1051 84.0267 26.6173 84.0998C27.6208 84.246 29.0408 84.38 30.6994 84.3557C31.5287 84.3435 32.4173 84.293 33.3441 84.1869C33.8076 84.1346 34.2797 84.0668 34.7606 83.985C35.2467 83.9032 35.7397 83.8075 36.2398 83.6926C38.2329 83.2384 40.3044 82.5092 42.2749 81.4042C43.2593 80.8508 44.1043 80.2695 44.8273 79.6709C45.0085 79.5212 45.181 79.3698 45.3465 79.2184C45.519 79.0687 45.6915 78.9173 45.8518 78.7677C46.1758 78.4649 46.472 78.1621 46.7421 77.8575C47.824 76.6393 48.5 75.4107 48.9181 74.3004C49.3729 73.1971 49.622 72.2225 49.7178 71.509C49.8206 70.7973 49.8032 70.357 49.8032 70.357C49.8032 70.357 49.2387 70.1377 48.2648 69.8593C47.2909 69.5808 45.9058 69.2415 44.2628 69.0187C40.9769 68.5784 36.6475 68.5784 32.4312 70.7364C30.3945 71.831 28.8805 73.2162 27.7602 74.6641C27.4797 75.0261 27.2254 75.3916 26.9919 75.757C26.8752 75.9398 26.7637 76.1225 26.6591 76.3052C26.5598 76.4897 26.4727 76.6741 26.3856 76.8569C26.3089 77.0222 26.2358 77.1875 26.1678 77.3511C26.2532 76.648 26.3438 75.945 26.4814 75.2506C26.8333 73.2806 27.1574 71.3054 27.532 69.3389L28.8631 63.483C28.9624 62.9922 29.1192 62.5154 29.2481 62.0316L29.6541 60.5854L30.0408 59.2054C30.2865 59.3046 30.6036 59.4247 30.9956 59.5587C31.9538 59.8876 33.3232 60.2826 34.961 60.5663C36.5969 60.8517 38.5012 61.0257 40.5205 60.9387C41.531 60.8969 42.5659 60.7873 43.6165 60.5993C44.6897 60.4184 45.7751 60.1573 46.8553 59.8006C49.0192 59.0853 50.6395 58.1456 51.8887 57.131C53.1971 56.1391 54.1083 55.0636 54.7442 54.0525C55.0648 53.5495 55.3052 53.0588 55.5126 52.615C55.7338 52.1782 55.8993 51.778 56.0213 51.4386C56.2652 50.7617 56.3349 50.3248 56.3349 50.3248C56.3349 50.3248 55.8227 50.0046 54.9167 49.5504C54.0107 49.0962 52.7145 48.5045 51.1395 47.979C49.5645 47.4534 47.709 46.994 45.6775 46.8269C44.6618 46.7434 43.6008 46.7347 42.5066 46.8269C41.9544 46.8722 41.409 46.9487 40.8654 47.0584C40.3184 47.168 39.7661 47.3072 39.2103 47.4795C36.9872 48.1721 35.2223 49.2494 33.832 50.4588C33.2204 51.0227 32.6995 51.6161 32.2465 52.2148C34.2066 46.6042 36.5464 41.1258 39.2364 35.825C39.4159 35.9364 39.625 36.0617 39.8654 36.1974C40.7452 36.6986 42.0171 37.3425 43.5746 37.9255C45.1305 38.5102 46.972 39.0358 48.9791 39.3281C49.9826 39.4743 51.0263 39.5631 52.096 39.5735C53.1657 39.584 54.2477 39.5091 55.3941 39.3664C57.6642 39.0671 59.457 38.451 60.8735 37.6818C61.5669 37.2885 62.2254 36.89 62.7917 36.4689C63.3579 36.046 63.8405 35.6057 64.2517 35.1707C64.6628 34.7338 65.0043 34.3023 65.2848 33.8985C65.4242 33.6966 65.5497 33.5017 65.6612 33.3173C65.7779 33.1363 65.8877 32.971 65.98 32.8143C66.3511 32.1948 66.5062 31.7806 66.5062 31.7806C66.5062 31.7806 66.0619 31.3717 65.2587 30.7574C64.4538 30.143 63.29 29.3234 61.8369 28.5142L61.8422 28.5246Z" fill="#6E1439"/>
</svg>
