<svg width="67" height="195" viewBox="0 0 67 195" fill="none" xmlns="http://www.w3.org/2000/svg">
<path d="M66.4355 90.5231C66.3484 89.5138 66.216 88.9221 66.216 88.9221C66.216 88.9221 65.6149 88.8368 64.601 88.8281C63.5887 88.8194 62.1653 88.8908 60.5206 89.1866C57.233 89.7731 53.062 91.2854 49.5131 94.5936C48.621 95.4202 47.8928 96.2608 47.2464 97.1031C46.5808 97.9453 46.0373 98.7859 45.5913 99.6143C44.8978 100.893 44.4623 102.139 44.1644 103.291C44.4118 96.7359 44.2166 90.1681 43.565 83.6474C43.842 83.6543 44.2654 83.6561 44.8142 83.6317C45.8265 83.5882 47.2446 83.4594 48.8754 83.1044C49.6908 82.9269 50.5567 82.6902 51.4522 82.377C51.8982 82.2203 52.3547 82.0428 52.8111 81.8444C53.2624 81.6461 53.7154 81.425 54.1684 81.1797C55.9786 80.1964 57.7818 78.8129 59.3603 76.8412C60.1495 75.8545 60.7906 74.8382 61.3064 73.8131C61.4353 73.5573 61.5573 73.3015 61.6705 73.0439C61.7768 72.7881 61.8708 72.534 61.9614 72.28C62.1409 71.7701 62.2907 71.2637 62.4179 70.7607C62.9232 68.749 63.0329 66.8156 62.9545 65.1466C62.8413 63.483 62.4928 62.096 62.2158 61.1197C61.9301 60.1451 61.6809 59.5883 61.6809 59.5883C61.6809 59.5883 61.0729 59.6161 60.0746 59.7953C59.0763 59.9746 57.6912 60.307 56.1336 60.9021C53.015 62.0855 49.2204 64.3374 46.3805 68.2304C44.8891 70.1899 43.9657 72.1025 43.4222 73.8845C43.2863 74.33 43.1747 74.7668 43.0841 75.1949C43.0388 75.409 42.9988 75.6213 42.9622 75.8301C42.9204 76.0407 42.8768 76.2478 42.842 76.4531C42.8089 76.6376 42.7827 76.8203 42.7566 77.0013C42.6643 76.2861 42.5684 75.5725 42.4238 74.866C42.0527 72.863 41.7078 70.8547 41.3123 68.8569L39.9167 62.9069C39.8122 62.4075 39.6502 61.9237 39.5143 61.4329L39.0909 59.9641L38.6867 58.5632C38.9463 58.5162 39.2808 58.4501 39.6833 58.3561C40.6694 58.1247 42.0406 57.7366 43.5737 57.0858C45.1052 56.4332 46.7986 55.5195 48.4224 54.2108C49.2326 53.5565 50.0288 52.803 50.771 51.9328C51.4905 51.0714 52.1578 50.0934 52.7397 48.9814C53.9018 46.7608 54.4698 44.5193 54.6335 42.4362C54.7381 40.3758 54.468 38.465 54.0673 36.8465C53.8635 36.039 53.6387 35.2994 53.3896 34.6573C53.1247 34.0203 52.8617 33.4722 52.6265 33.0232C52.1561 32.1252 51.8041 31.6275 51.8041 31.6275C51.8041 31.6275 51.21 31.7684 50.264 32.1304C49.3162 32.4924 48.0182 33.0771 46.6 33.9507C45.1818 34.8226 43.6451 35.9833 42.2095 37.4713C41.4917 38.2144 40.8001 39.0392 40.1624 39.9494C39.847 40.4019 39.5317 40.8822 39.2233 41.3869C38.9184 41.8898 38.6292 42.4171 38.3574 42.9653C37.2737 45.158 36.7389 47.1993 36.5542 49.0405C36.4444 49.8915 36.4026 50.7007 36.4113 51.4664C34.399 45.7688 32.0156 40.2035 29.2873 34.8122C29.4876 34.7321 29.7141 34.6364 29.9737 34.5215C30.9006 34.1108 32.1742 33.4739 33.5575 32.5498C34.9391 31.6257 36.4305 30.4145 37.7755 28.8326C38.448 28.0408 39.0839 27.1567 39.6502 26.1665C40.2147 25.1763 40.7234 24.0747 41.0736 22.8861C41.7949 20.4968 41.9151 18.2066 41.6956 16.1339C41.5998 15.088 41.3611 14.1326 41.0806 13.2364C40.8001 12.3402 40.4673 11.5101 40.1171 10.7583C39.7669 10.0065 39.3958 9.33125 39.0404 8.74304C38.8627 8.44894 38.6867 8.17572 38.5195 7.92686C38.347 7.68148 38.1727 7.46221 38.0159 7.26382C37.3835 6.47374 36.9445 6.05434 36.9445 6.05434C36.9445 6.05434 36.3869 6.3032 35.5228 6.83398C34.6586 7.36476 33.4896 8.18094 32.2595 9.29993C29.7803 11.5414 27.1408 14.9662 25.8132 19.6806C25.4874 20.8535 25.2923 21.9638 25.1964 23.0097C25.1006 24.0573 25.1215 25.0301 25.1581 25.9768C25.1877 26.5111 25.2435 27.0227 25.3184 27.5152C23.8061 24.9153 22.2102 22.3623 20.5342 19.8633C20.5499 19.8146 20.5673 19.7676 20.583 19.7171C20.8739 18.8192 21.2015 17.5383 21.3513 16.0052C21.4262 15.2394 21.4558 14.4093 21.414 13.5357C21.3931 13.0989 21.3548 12.6517 21.2956 12.194C21.2346 11.7398 21.1649 11.2664 21.0377 10.8122C20.5603 8.97624 19.6857 7.04803 18.2449 5.2225C16.75 3.44221 14.9991 2.23273 13.2899 1.40784C12.8596 1.20423 12.4362 1.01803 12.0041 0.868363C11.5668 0.722181 11.133 0.600363 10.7061 0.495947C9.85419 0.288856 9.03184 0.158336 8.26351 0.0835051C5.18669 -0.21408 2.96183 0.379349 2.96183 0.379349C2.96183 0.379349 2.35205 2.66431 2.40606 5.64886C2.42 6.39543 2.47574 7.18377 2.59422 7.99299C2.65345 8.39673 2.72838 8.80743 2.82246 9.21813C2.90957 9.6358 3.00191 10.0674 3.12387 10.492C3.59427 12.2044 4.42184 13.8925 5.75117 15.4709C7.02476 17.0946 8.5475 18.2118 10.1382 19.0071C10.5424 19.2003 10.9187 19.3969 11.309 19.5657C11.6957 19.7363 12.086 19.8894 12.4728 20.0252C13.2464 20.2966 14.0129 20.5037 14.7464 20.6604C16.2099 20.9753 17.5358 21.0937 18.494 21.1337C18.5201 21.1337 18.5411 21.1337 18.5654 21.1354C20.2328 23.5788 21.8182 26.0795 23.3183 28.629C22.9472 28.3384 22.5535 28.0547 22.1318 27.7885C21.3792 27.296 20.4784 26.8905 19.501 26.5581C18.5236 26.2274 17.4539 25.9786 16.2918 25.8463C11.6696 25.2981 7.56312 26.9218 4.66924 28.5246C3.21795 29.3338 2.05238 30.1535 1.24746 30.7678C0.442538 31.3821 0 31.7911 0 31.7911C0 31.7911 0.153322 32.2052 0.526163 32.8248C0.618503 32.9797 0.728278 33.1467 0.845009 33.3277C0.956513 33.5122 1.0802 33.7071 1.22132 33.909C1.50182 34.3127 1.84331 34.7443 2.25448 35.1811C2.66566 35.6179 3.15 36.0582 3.71449 36.4793C4.28072 36.9022 4.93755 37.299 5.63271 37.6923C7.04916 38.4632 8.84193 39.0775 11.1121 39.3769C12.2602 39.5196 13.3404 39.5944 14.4102 39.584C15.4799 39.5735 16.5235 39.4848 17.5271 39.3386C19.5341 39.0462 21.3757 38.5206 22.9315 37.9359C24.4891 37.3529 25.7609 36.709 26.6408 36.2078C26.8812 36.0704 27.0903 35.9468 27.2697 35.8354C29.9615 41.1363 32.2996 46.6146 34.2614 52.2252C33.8084 51.6266 33.2857 51.0314 32.6759 50.4693C31.2856 49.2598 29.5207 48.1826 27.2976 47.49C26.7418 47.3159 26.1895 47.1785 25.6425 47.0688C25.0989 46.9592 24.5536 46.8809 24.0013 46.8374C22.9071 46.7434 21.8478 46.7538 20.8304 46.8374C18.7989 47.0044 16.9434 47.4638 15.3684 47.9894C13.7934 48.515 12.4972 49.1067 11.5912 49.5609C10.687 50.0151 10.173 50.3353 10.173 50.3353C10.173 50.3353 10.2427 50.7703 10.4866 51.449C10.6086 51.7884 10.7741 52.1869 10.9954 52.6255C11.2027 53.0692 11.4431 53.56 11.7637 54.0629C12.3996 55.0723 13.3091 56.1495 14.6192 57.1414C15.8702 58.1543 17.4887 59.0958 19.6526 59.811C20.7328 60.1695 21.82 60.4305 22.8914 60.6098C23.942 60.7977 24.9769 60.9056 25.9874 60.9491C28.0067 61.0344 29.911 60.8604 31.547 60.5767C33.1829 60.2931 34.5523 59.898 35.5123 59.5691C35.9026 59.4351 36.2214 59.3133 36.4671 59.2158L36.8539 60.5959L37.2598 62.042C37.3887 62.5258 37.5455 63.0026 37.6448 63.4934L38.9759 69.3494C39.3488 71.3159 39.6746 73.2911 40.0265 75.261C40.1641 75.9571 40.2547 76.6585 40.3401 77.3615C40.2704 77.1979 40.199 77.0326 40.1223 76.8656C40.0369 76.6828 39.9481 76.4984 39.8488 76.3139C39.7425 76.1312 39.6328 75.9484 39.516 75.7657C39.2826 75.4003 39.0282 75.0331 38.7477 74.6728C37.6274 73.2249 36.1134 71.8397 34.0767 70.7451C29.8605 68.5889 25.531 68.5889 22.2451 69.0274C20.6021 69.2502 19.2171 69.5895 18.2431 69.868C17.2692 70.1464 16.7047 70.3657 16.7047 70.3657C16.7047 70.3657 16.6873 70.806 16.7901 71.5177C16.8859 72.2312 17.1351 73.2058 17.5898 74.3091C18.0097 75.4194 18.6839 76.648 19.7659 77.8662C20.0359 78.1708 20.3321 78.4753 20.6561 78.7764C20.8182 78.9278 20.9889 79.0774 21.1614 79.2271C21.3269 79.3785 21.5011 79.5299 21.6806 79.6796C22.4036 80.2782 23.2486 80.8612 24.233 81.4129C26.2035 82.5179 28.2733 83.2471 30.2682 83.7013C30.7664 83.8144 31.2612 83.9119 31.7473 83.9937C32.2282 84.0755 32.7003 84.1416 33.1638 84.1955C34.0907 84.3017 34.9792 84.3522 35.8085 84.3643C37.4671 84.3887 38.8853 84.2547 39.8906 84.1085C40.4046 84.0337 40.807 83.9589 41.0788 83.9014C41.6381 90.2534 41.7565 96.6384 41.4482 103.003C41.2217 101.899 40.8332 100.714 40.246 99.522C39.8418 98.7093 39.3401 97.8949 38.7163 97.1013C38.0734 96.3078 37.272 95.5368 36.3503 94.8129C32.6446 91.9188 28.4144 91.1183 25.1076 90.9425C23.4542 90.8573 22.0308 90.9356 21.0203 91.0278C20.0098 91.1218 19.4139 91.2332 19.4139 91.2332C19.4139 91.2332 19.3076 91.6647 19.2641 92.3852C19.2205 93.1057 19.2414 94.1133 19.4958 95.2827C19.616 95.8675 19.8251 96.494 20.062 97.1483C20.2885 97.8026 20.5952 98.4848 20.9994 99.1827C21.4053 99.8822 21.9106 100.597 22.5395 101.318C22.8531 101.678 23.1981 102.042 23.5744 102.404C23.7626 102.585 23.9595 102.768 24.165 102.949C24.3637 103.13 24.5658 103.311 24.7801 103.49C28.1931 106.379 32.3101 107.847 35.5733 108.495C37.2058 108.822 38.6257 108.949 39.6362 108.989C40.2739 109.015 40.7495 109.006 41.0144 108.996L40.9586 109.657C40.9116 110.155 40.8906 110.654 40.8122 111.149L40.0126 117.09L39.962 117.461L39.8941 117.83L39.7565 118.566L39.4829 120.038L38.9341 122.982C38.8348 123.471 38.7703 123.967 38.6432 124.451L38.2947 125.908L37.6849 128.463C37.732 127.168 37.6204 125.704 37.2075 124.171C37.0995 123.739 36.9253 123.292 36.7389 122.848C36.549 122.403 36.3329 121.954 36.0855 121.505C35.5907 120.607 34.974 119.709 34.2091 118.834C33.4443 117.957 32.6219 117.203 31.7665 116.552C30.9215 115.903 29.9859 115.35 29.0852 114.887C27.268 113.959 25.4473 113.371 23.8305 112.983C22.2137 112.597 20.8008 112.414 19.792 112.32C18.7832 112.228 18.1804 112.228 18.1804 112.228C18.1804 112.228 18.0131 112.631 17.8668 113.331C17.7466 114.036 17.5306 115.014 17.5515 116.201C17.5584 116.792 17.6142 117.436 17.7431 118.122C17.8076 118.465 17.8912 118.818 17.994 119.18C18.0968 119.542 18.2309 119.918 18.3512 120.292C18.8669 121.801 19.7641 123.447 21.2276 125.187C22.7155 126.935 24.3184 128.339 25.9944 129.475C27.667 130.612 29.3761 131.466 30.918 132.088C32.4582 132.711 33.8293 133.099 34.8172 133.327C35.5507 133.495 36.0716 133.577 36.2911 133.609C34.5227 139.684 32.3362 145.635 29.735 151.399C29.5329 151.845 29.3221 152.287 29.1165 152.73C29.1339 152.67 29.1514 152.612 29.1688 152.55C29.3552 151.869 29.5085 151.122 29.5991 150.322C29.6444 149.922 29.6758 149.509 29.6862 149.085C29.6915 148.658 29.6566 148.211 29.6096 147.759C29.4127 145.945 28.85 143.977 27.6896 141.979C27.1234 140.985 26.409 140.075 25.6756 139.275C24.9368 138.471 24.1511 137.764 23.3497 137.143C21.745 135.899 20.0707 134.985 18.5567 134.306C17.0427 133.628 15.6872 133.186 14.7133 132.905C13.7394 132.627 13.1453 132.514 13.1453 132.514C13.1453 132.514 12.8996 132.876 12.6174 133.53C12.4763 133.857 12.3247 134.258 12.1888 134.722C12.1209 134.955 12.0581 135.204 12.0006 135.469C11.9344 135.73 11.8665 136.003 11.8107 136.294C11.5895 137.451 11.5233 138.841 11.809 140.439C11.8769 140.838 11.9815 141.255 12.0825 141.673C12.1818 142.091 12.3055 142.52 12.4588 142.964C12.762 143.85 13.1784 144.788 13.7272 145.775C14.2778 146.761 14.898 147.682 15.5618 148.535C15.8946 148.961 16.2378 149.372 16.5897 149.765C16.9382 150.157 17.2849 150.527 17.642 150.882C19.0672 152.304 20.5847 153.461 21.982 154.358C23.3775 155.256 24.6529 155.891 25.5815 156.298C26.5101 156.705 27.0903 156.886 27.0903 156.886C27.0903 156.886 27.1007 156.872 27.1164 156.853C24.4194 162.164 21.3652 167.293 17.9853 172.192C17.3459 173.114 16.6908 174.024 16.0287 174.929C16.1785 174.666 16.3284 174.39 16.4747 174.097C16.7866 173.467 17.0793 172.766 17.3215 172.002C17.5567 171.233 17.6978 170.373 17.7797 169.472C17.8563 168.567 17.8494 167.608 17.7292 166.604C17.6682 166.101 17.5811 165.588 17.4591 165.064C17.3372 164.54 17.1908 164.011 16.9783 163.454C15.3283 159.039 12.1505 156.124 9.43255 154.225C8.07185 153.279 6.82442 152.591 5.91845 152.135C5.01247 151.681 4.44972 151.458 4.44972 151.458C4.44972 151.458 4.13786 151.766 3.73191 152.351C3.32597 152.938 2.82594 153.799 2.44438 154.923C2.01405 156.02 1.67258 157.361 1.64993 158.978C1.64296 159.382 1.65515 159.803 1.69 160.24C1.72136 160.677 1.78931 161.138 1.8468 161.595C1.97747 162.519 2.2057 163.513 2.55938 164.58C3.26673 166.714 4.30164 168.643 5.46372 170.321C6.04912 171.163 6.65193 171.931 7.26171 172.634C7.87324 173.337 8.49349 173.976 9.09631 174.545C10.3019 175.683 11.4362 176.544 12.2742 177.117C13.1105 177.689 13.6488 177.975 13.6488 177.975C13.6488 177.975 13.7429 177.898 13.9014 177.752C10.4344 182.23 6.69027 186.488 2.69877 190.492C2.69354 190.498 2.68134 190.512 2.67437 190.517C1.97747 191.263 2.11337 192.563 2.97927 193.418C3.84517 194.272 5.13442 194.338 5.85919 193.562C9.9169 189.309 13.7011 184.802 17.1908 180.082C17.1769 180.107 17.1594 180.134 17.1455 180.157C17.027 180.368 16.9695 180.488 16.9695 180.488C16.9695 180.488 17.3859 180.928 18.1595 181.581C18.9331 182.233 20.0655 183.098 21.5064 183.937C22.2277 184.356 23.0256 184.767 23.8967 185.139C24.7696 185.512 25.7156 185.846 26.714 186.09C28.7175 186.586 30.9877 186.78 33.4948 186.387C34.7475 186.19 35.913 185.87 36.9932 185.46C37.5403 185.259 38.0316 185.016 38.5125 184.76C38.9916 184.504 39.4498 184.231 39.8871 183.944C41.6311 182.795 43.0423 181.443 44.1138 180.148C45.14 178.824 45.8561 177.574 46.3143 176.661C46.7708 175.747 46.9711 175.166 46.9711 175.166C46.9711 175.166 46.5059 174.773 45.6505 174.23C44.795 173.687 43.5511 172.992 42.0005 172.376C38.9027 171.139 34.5698 170.231 29.8239 171.193C29.2385 171.318 28.6478 171.445 28.0956 171.597C27.5415 171.748 27.0136 171.919 26.5119 172.105C25.5083 172.477 24.6058 172.914 23.7957 173.391C22.9803 173.864 22.2799 174.393 21.6196 174.91C20.9523 175.422 20.3704 175.951 19.8634 176.471C19.7537 176.583 19.6509 176.694 19.5481 176.805C20.1108 175.996 20.6649 175.183 21.2084 174.362C24.5797 169.251 27.6147 163.924 30.2908 158.428C30.2838 158.451 30.2803 158.468 30.2803 158.468C30.2803 158.468 30.7717 158.823 31.6532 159.323C32.5348 159.82 33.8067 160.462 35.3782 161.021C36.9479 161.578 38.8174 162.05 40.9046 162.182C41.4255 162.215 41.9656 162.229 42.5057 162.211C43.0441 162.192 43.5929 162.149 44.1521 162.072C45.2707 161.923 46.431 161.651 47.621 161.225C48.8109 160.798 49.8911 160.266 50.8685 159.662C51.3581 159.361 51.8215 159.041 52.2606 158.707C52.6979 158.372 53.0812 158.014 53.4575 157.652C54.9489 156.197 56.0622 154.601 56.8758 153.131C57.0779 152.764 57.2678 152.405 57.4298 152.055C57.5832 151.702 57.7191 151.361 57.841 151.035C58.0832 150.385 58.2661 149.798 58.402 149.306C58.6738 148.321 58.7574 147.713 58.7574 147.713C58.7574 147.713 58.2261 147.414 57.2852 147.038C56.3444 146.662 54.9907 146.213 53.3547 145.896C51.7188 145.58 49.797 145.394 47.7273 145.522C46.6924 145.587 45.6191 145.728 44.5285 145.966C43.4309 146.205 42.342 146.549 41.1781 146.989C38.8784 147.877 37.0856 149.025 35.6848 150.265C35.3311 150.573 35.014 150.893 34.6987 151.206C34.3781 151.516 34.0784 151.831 33.8014 152.144C33.2474 152.772 32.7787 153.4 32.3815 154.004C32.3362 154.074 32.2944 154.144 32.2491 154.213C32.4617 153.738 32.6777 153.266 32.885 152.79C35.4688 146.841 37.6222 140.711 39.3453 134.466C39.5439 134.553 40.0335 134.761 40.7548 135.006C41.7147 135.331 43.0842 135.726 44.7288 135.98C46.3735 136.235 48.2952 136.351 50.3633 136.092C52.4261 135.831 54.6754 135.204 56.8131 133.917C58.9752 132.634 60.6269 131.017 61.8813 129.329C62.2036 128.908 62.4632 128.476 62.7106 128.045C62.9563 127.613 63.1793 127.182 63.3814 126.754C63.7856 125.897 64.1079 125.055 64.3623 124.258C64.8658 122.662 65.1411 121.253 65.1863 120.233C65.2578 119.217 65.2212 118.606 65.2212 118.606C65.2212 118.606 64.6428 118.411 63.6462 118.218C62.6514 118.024 61.2384 117.833 59.5728 117.826C57.909 117.817 55.9907 117.993 53.9906 118.501C52.9819 118.755 51.9871 119.096 50.9295 119.528C49.8807 119.961 48.8284 120.496 47.79 121.145C46.7516 121.794 45.8508 122.485 45.0686 123.198C44.6783 123.555 44.3159 123.917 43.9814 124.282C43.6434 124.646 43.3507 125.019 43.0406 125.382C41.9761 126.672 41.2252 127.975 40.692 129.185L41.2792 126.562L41.6137 125.067C41.7357 124.571 41.7966 124.063 41.8907 123.562L42.4082 120.543L42.6677 119.034L42.7967 118.279L42.8611 117.901L42.9064 117.522L43.6364 111.443C43.7096 110.938 43.7253 110.426 43.7654 109.918L43.8124 109.243C44.072 109.301 44.5389 109.393 45.1731 109.483C46.1766 109.624 47.5966 109.758 49.257 109.704C52.5777 109.591 56.8706 108.752 60.7558 105.455C60.998 105.247 61.2332 105.039 61.4562 104.825C61.6722 104.611 61.8778 104.395 62.0782 104.175C62.4754 103.737 62.8413 103.288 63.1758 102.83C63.8448 101.917 64.3936 100.975 64.8396 100.034C65.2874 99.0922 65.6341 98.1524 65.9007 97.2405C66.1585 96.3286 66.284 95.4463 66.3833 94.6197C66.568 92.9665 66.5261 91.5394 66.439 90.5301L66.4355 90.5231Z" fill="#6E1439"/>
</svg>
